<svg version="1.0" xmlns="http://www.w3.org/2000/svg" width="933.333" height="933.333" viewBox="0 0 700 700"><path d="M328 .6c-1.9.2-8.4.9-14.5 1.4-57.8 5.6-118 28.3-166 62.5-23.7 16.9-53.1 44.6-70.9 67C35 183.6 9.3 246.2 1.8 313.5c-1.7 15.5-1.7 57.5 0 73 5.2 46.9 19.8 93.1 41.8 132.7 29 52.3 73.1 98.3 123.9 129.4 43.9 26.9 92 43.2 146 49.6 14.5 1.7 57.6 1.7 73 0 82.2-9.1 155.6-44.7 213.1-103.4 20.3-20.6 34.8-39 48.7-61.8 27.4-44.9 43.3-91.6 49.9-146.5 1.6-13.6 1.6-59.2 0-73C689.6 241 663 178.8 617.9 125c-12.2-14.5-35.1-37-49.4-48.4-51-40.7-111.7-66.1-177.5-74.2C379.3.9 335.7-.3 328 .6zM411.3 215c8.8 3.7 15.8 8.4 19.2 13 3.2 4.4 3.2 9.5.1 18.6-1.3 3.8-27.6 59.3-58.5 123.4-40.8 84.7-56.8 117.1-58.8 118.8-6.4 5.2-14.2 5-27-.8-18.6-8.5-21.8-13.5-17.7-27.8 2.1-7.2 110.3-234 115-240.8 3.1-4.6 5-6.2 9.4-7.8 3-1.1 11.1.4 18.3 3.4zm-163.5 31.7c4.7 3.7 12.6 15.2 15.3 22.3 3.6 9.5.6 16.6-10.3 24.3-3.5 2.5-23.6 14.7-44.8 27.2-39.6 23.4-63 37.4-63 37.9 0 .2 23.9 14.4 53 31.7 54.1 32 60.7 36.3 64.4 41.2 3.5 4.7 2.8 12.6-1.7 21.3-4.5 8.4-12.4 17.6-16.7 19.4-4.3 1.8-11.2.7-17.9-2.7-11.4-5.9-151.7-89.6-154.5-92.2-7.2-6.6-9.2-20.8-4.4-31.2 1.4-3.1 3.9-6.5 5.4-7.6 2.5-1.8 116.5-69.7 146.2-87.1 5.1-3 11-6.1 13-6.8 5.5-2.1 11.7-1.2 16 2.3zm220.7-1.9c6.8 2.4 155.1 90.5 159.7 95 4.6 4.4 6.8 10.6 6.8 19.1 0 7.4-2.9 15-7.1 18.7-1.3 1.2-20.8 13-43.4 26.4-22.5 13.4-56.5 33.5-75.5 44.8-35.4 21.1-41.4 24.2-47.6 24.2-8 0-16.8-8.4-23.5-22.5-5.1-10.6-3.6-17.5 5.2-24.7 2.4-2 28.6-17.9 58.2-35.4 42.2-24.9 53.5-32 52.5-32.9-.7-.7-24.7-15-53.3-32-28.6-16.9-53.9-32.1-56.2-33.6-5.3-3.7-8.5-8.9-9-14.8-.4-3.9.2-5.9 3.6-12.7 4.3-8.6 10.6-16.5 15.6-19.5 3.7-2.3 7.5-2.3 14-.1z"/></svg>